<?xml version="1.0" encoding="UTF-8" standalone="no"?>
<!DOCTYPE svg PUBLIC "-//W3C//DTD SVG 1.1//EN"
 "http://www.w3.org/Graphics/SVG/1.1/DTD/svg11.dtd">
<!-- Generated by graphviz version 2.38.0 (20140413.2041)
 -->
<!-- Title: G Pages: 1 -->
<svg width="523pt" height="863pt"
 viewBox="0.00 0.00 522.99 862.90" xmlns="http://www.w3.org/2000/svg" xmlns:xlink="http://www.w3.org/1999/xlink">
<g id="graph0" class="graph" transform="scale(1 1) rotate(0) translate(4 858.901)">
<title>G</title>
<polygon fill="white" stroke="none" points="-4,4 -4,-858.901 518.993,-858.901 518.993,4 -4,4"/>
<!-- InputA -->
<g id="node1" class="node"><title>InputA</title>
<ellipse fill="none" stroke="black" cx="426.596" cy="-818.505" rx="36.2938" ry="36.2938"/>
<text text-anchor="middle" x="426.596" y="-814.805" font-family="Times New Roman,serif" font-size="14.00">InputA</text>
</g>
<!-- InputA&#45;&gt;InputA -->
<g id="edge1" class="edge"><title>InputA&#45;&gt;InputA</title>
<path fill="none" stroke="black" d="M461.387,-829.748C472.347,-829.577 480.993,-825.829 480.993,-818.505 480.993,-813.698 477.27,-810.432 471.612,-808.706"/>
<polygon fill="black" stroke="black" points="471.779,-805.194 461.387,-807.261 470.799,-812.126 471.779,-805.194"/>
<text text-anchor="middle" x="497.993" y="-814.805" font-family="Times New Roman,serif" font-size="14.00">req=0</text>
</g>
<!-- DoneA -->
<g id="node2" class="node"><title>DoneA</title>
<ellipse fill="none" stroke="black" cx="344.596" cy="-694.711" rx="36.2938" ry="36.2938"/>
<text text-anchor="middle" x="344.596" y="-691.011" font-family="Times New Roman,serif" font-size="14.00">DoneA</text>
<text text-anchor="middle" x="276.7" y="-734.908" font-family="Times New Roman,serif" font-size="14.00">regA&lt;=AB</text>
</g>
<!-- InputA&#45;&gt;DoneA -->
<g id="edge2" class="edge"><title>InputA&#45;&gt;DoneA</title>
<path fill="none" stroke="black" d="M400.426,-792.834C392.171,-784.237 383.431,-774.204 376.596,-764.108 371.142,-756.05 366.161,-746.916 361.836,-738.007"/>
<polygon fill="black" stroke="black" points="364.97,-736.445 357.576,-728.858 358.625,-739.401 364.97,-736.445"/>
<text text-anchor="middle" x="395.096" y="-752.908" font-family="Times New Roman,serif" font-size="14.00">req =1</text>
</g>
<!-- InputB -->
<g id="node3" class="node"><title>InputB</title>
<ellipse fill="none" stroke="black" cx="323.596" cy="-571.567" rx="35.9954" ry="35.9954"/>
<text text-anchor="middle" x="323.596" y="-567.867" font-family="Times New Roman,serif" font-size="14.00">InputB</text>
</g>
<!-- DoneA&#45;&gt;InputB -->
<g id="edge3" class="edge"><title>DoneA&#45;&gt;InputB</title>
<path fill="none" stroke="black" d="M338.522,-658.671C336.283,-645.752 333.714,-630.937 331.347,-617.278"/>
<polygon fill="black" stroke="black" points="334.741,-616.365 329.584,-607.11 327.844,-617.561 334.741,-616.365"/>
<text text-anchor="middle" x="354.096" y="-629.114" font-family="Times New Roman,serif" font-size="14.00">req =0</text>
</g>
<!-- DoneB -->
<g id="node4" class="node"><title>DoneB</title>
<ellipse fill="none" stroke="black" cx="318.596" cy="-448.424" rx="36.2938" ry="36.2938"/>
<text text-anchor="middle" x="318.596" y="-444.724" font-family="Times New Roman,serif" font-size="14.00">DoneB</text>
<text text-anchor="middle" x="251.2" y="-488.621" font-family="Times New Roman,serif" font-size="14.00">regB&lt;=AB</text>
</g>
<!-- InputB&#45;&gt;DoneB -->
<g id="edge4" class="edge"><title>InputB&#45;&gt;DoneB</title>
<path fill="none" stroke="black" d="M322.15,-535.528C321.626,-522.831 321.026,-508.303 320.471,-494.842"/>
<polygon fill="black" stroke="black" points="323.966,-494.652 320.057,-484.805 316.972,-494.94 323.966,-494.652"/>
<text text-anchor="middle" x="340.096" y="-506.621" font-family="Times New Roman,serif" font-size="14.00">req =1</text>
</g>
<!-- chkAeqB -->
<g id="node8" class="node"><title>chkAeqB</title>
<ellipse fill="none" stroke="black" cx="317.596" cy="-330.181" rx="44.6926" ry="44.6926"/>
<text text-anchor="middle" x="317.596" y="-326.481" font-family="Times New Roman,serif" font-size="14.00">chkAeqB</text>
</g>
<!-- DoneB&#45;&gt;chkAeqB -->
<g id="edge5" class="edge"><title>DoneB&#45;&gt;chkAeqB</title>
<path fill="none" stroke="black" d="M318.291,-411.916C318.218,-403.475 318.139,-394.28 318.061,-385.218"/>
<polygon fill="black" stroke="black" points="321.56,-385.061 317.974,-375.091 314.56,-385.121 321.56,-385.061"/>
</g>
<!-- done -->
<g id="node5" class="node"><title>done</title>
<ellipse fill="none" stroke="black" cx="400.596" cy="-191.439" rx="28.6953" ry="28.6953"/>
<text text-anchor="middle" x="400.596" y="-187.739" font-family="Times New Roman,serif" font-size="14.00">done</text>
<text text-anchor="middle" x="336.499" y="-223.836" font-family="Times New Roman,serif" font-size="14.00">regC&lt;=regA</text>
</g>
<!-- done&#45;&gt;InputA -->
<g id="edge8" class="edge"><title>done&#45;&gt;InputA</title>
<path fill="none" stroke="black" d="M408.991,-218.86C416.917,-246.181 427.596,-290.222 427.596,-329.181 427.596,-695.711 427.596,-695.711 427.596,-695.711 427.596,-720.925 427.379,-749.073 427.148,-771.952"/>
<polygon fill="black" stroke="black" points="423.647,-772.028 427.041,-782.064 430.646,-772.102 423.647,-772.028"/>
</g>
<!-- updateA -->
<g id="node6" class="node"><title>updateA</title>
<ellipse fill="none" stroke="black" cx="143.596" cy="-55.9464" rx="41.6928" ry="41.6928"/>
<text text-anchor="middle" x="143.596" y="-52.2464" font-family="Times New Roman,serif" font-size="14.00">updateA</text>
<text text-anchor="middle" x="51" y="-101.343" font-family="Times New Roman,serif" font-size="14.00">regA&lt;=regA&#45;regB</text>
</g>
<!-- updateA&#45;&gt;chkAeqB -->
<g id="edge10" class="edge"><title>updateA&#45;&gt;chkAeqB</title>
<path fill="none" stroke="black" d="M145.129,-97.7214C148.29,-135.818 157.602,-192.882 184.596,-234.335 204.845,-265.43 239.138,-289.515 267.829,-305.634"/>
<polygon fill="black" stroke="black" points="266.467,-308.877 276.923,-310.586 269.815,-302.729 266.467,-308.877"/>
</g>
<!-- updateB -->
<g id="node7" class="node"><title>updateB</title>
<ellipse fill="none" stroke="black" cx="252.596" cy="-55.9464" rx="40.8928" ry="40.8928"/>
<text text-anchor="middle" x="252.596" y="-52.2464" font-family="Times New Roman,serif" font-size="14.00">updateB</text>
<text text-anchor="middle" x="161.15" y="-3.8" font-family="Times New Roman,serif" font-size="14.00">regB&lt;=regB&#45;regA</text>
</g>
<!-- updateB&#45;&gt;chkAeqB -->
<g id="edge12" class="edge"><title>updateB&#45;&gt;chkAeqB</title>
<path fill="none" stroke="black" d="M282.751,-84.1544C290.954,-93.2764 298.87,-104.071 303.596,-115.543 324.746,-166.875 325.981,-231.034 323.341,-275.578"/>
<polygon fill="black" stroke="black" points="319.845,-275.401 322.661,-285.615 326.829,-275.874 319.845,-275.401"/>
</g>
<!-- chkAeqB&#45;&gt;done -->
<g id="edge7" class="edge"><title>chkAeqB&#45;&gt;done</title>
<path fill="none" stroke="black" d="M333.446,-287.863C338.616,-276.055 344.797,-263.397 351.596,-252.335 358.302,-241.426 366.806,-230.337 374.841,-220.715"/>
<polygon fill="black" stroke="black" points="377.588,-222.887 381.43,-213.013 372.269,-218.337 377.588,-222.887"/>
<text text-anchor="middle" x="382.596" y="-256.135" font-family="Times New Roman,serif" font-size="14.00">regA=regB</text>
</g>
<!-- chkAgtB -->
<g id="node9" class="node"><title>chkAgtB</title>
<ellipse fill="none" stroke="black" cx="236.596" cy="-191.439" rx="42.7926" ry="42.7926"/>
<text text-anchor="middle" x="236.596" y="-187.739" font-family="Times New Roman,serif" font-size="14.00">chkAgtB</text>
</g>
<!-- chkAeqB&#45;&gt;chkAgtB -->
<g id="edge6" class="edge"><title>chkAeqB&#45;&gt;chkAgtB</title>
<path fill="none" stroke="black" d="M278.051,-308.914C262.496,-298.712 246.3,-284.77 237.596,-267.335 234.043,-260.218 232.131,-252.226 231.279,-244.183"/>
<polygon fill="black" stroke="black" points="234.764,-243.823 230.722,-234.03 227.775,-244.207 234.764,-243.823"/>
<text text-anchor="middle" x="270.596" y="-256.135" font-family="Times New Roman,serif" font-size="14.00">regA/=regB</text>
</g>
<!-- chkAgtB&#45;&gt;updateA -->
<g id="edge9" class="edge"><title>chkAgtB&#45;&gt;updateA</title>
<path fill="none" stroke="black" d="M203.73,-163.384C193.466,-153.782 182.717,-142.396 174.596,-130.543 169.188,-122.648 164.442,-113.66 160.395,-104.743"/>
<polygon fill="black" stroke="black" points="163.597,-103.329 156.432,-95.5243 157.166,-106.094 163.597,-103.329"/>
<text text-anchor="middle" x="205.596" y="-119.343" font-family="Times New Roman,serif" font-size="14.00">regA&gt;regB</text>
</g>
<!-- chkAgtB&#45;&gt;updateB -->
<g id="edge11" class="edge"><title>chkAgtB&#45;&gt;updateB</title>
<path fill="none" stroke="black" d="M238.523,-148.365C239.256,-137.638 240.252,-126.144 241.596,-115.543 241.981,-112.509 242.423,-109.394 242.905,-106.259"/>
<polygon fill="black" stroke="black" points="246.383,-106.68 244.555,-96.2443 239.476,-105.542 246.383,-106.68"/>
<text text-anchor="middle" x="272.596" y="-119.343" font-family="Times New Roman,serif" font-size="14.00">regA&lt;regB</text>
</g>
</g>
</svg>
